<?xml version="1.0" encoding="UTF-8"?>
<svg width="284px" height="234px" viewBox="0 0 284 234" version="1.1" xmlns="http://www.w3.org/2000/svg" xmlns:xlink="http://www.w3.org/1999/xlink">
    <!-- Generator: Sketch 51.3 (57544) - http://www.bohemiancoding.com/sketch -->
    <title>icone_constructeur</title>
    <desc>Created with Sketch.</desc>
    <defs></defs>
    <g id="icone_constructeur" stroke="none" stroke-width="1" fill="none" fill-rule="evenodd">
        <path d="M97.553,61 L95.953,62.48 L25.393,127.78 L25.393,168.177 L16,168.177 L16,172.659 L253.346,172.659 L255.443,172.71 L255.443,172.659 L268.587,172.659 L268.587,168.177 L255.443,168.177 L255.443,98.46 L99.813,61.54 L97.553,61 Z M225.049,167.493 L225.049,110.556 L100.433,87.863 L100.433,66.29 L250.953,102.009 L250.953,168.12 L225.049,167.493 Z M29.873,129.74 L95.953,68.58 L95.953,168.177 L29.873,168.177 L29.873,129.74 Z M100.433,164.48 L100.433,90.151 L145.087,98.283 L145.087,165.559 L100.433,164.48 Z M147.339,165.614 L147.339,98.693 L176.165,103.942 L176.165,166.311 L147.339,165.614 Z M178.417,166.366 L178.417,104.352 L222.797,112.433 L222.797,167.439 L178.417,166.366 Z" id="Fill-1" fill="#C4A27D"></path>
    </g>
</svg>