<svg width="392" height="156" viewBox="0 0 392 156" fill="none" xmlns="http://www.w3.org/2000/svg">
<path d="M13.8913 111.03H11.2059V113.749H13.8913V111.03Z" fill="white"/>
<path d="M17.7703 119.087C17.8348 119.565 17.7739 120.051 17.5938 120.499C17.4136 120.946 17.1203 121.339 16.7425 121.64C15.9513 122.029 15.0673 122.189 14.1897 122.104H7.559C6.40363 122.173 5.25276 121.908 4.24365 121.341C3.76118 120.942 3.38253 120.432 3.14005 119.855C2.89757 119.277 2.79846 118.65 2.8512 118.026V113.782H0V117.96C0 122.601 2.58597 124.922 7.79108 124.922H16.5768C17.0967 124.964 17.6196 124.89 18.108 124.707C18.5964 124.524 19.0384 124.235 19.4025 123.862C19.7666 123.488 20.0438 123.039 20.2144 122.546C20.385 122.053 20.4447 121.528 20.3894 121.01V113.782H17.7703V119.087Z" fill="white"/>
<path d="M9.21659 111.03H6.53115V113.749H9.21659V111.03Z" fill="white"/>
<path d="M31.9932 119.22C32.0708 120.064 31.8216 120.907 31.2969 121.574C31.0706 121.769 30.8071 121.917 30.5222 122.008C30.2374 122.099 29.937 122.132 29.6393 122.104L26.5228 110.832H23.6716L26.7549 122.104H23.0086V124.922H30.3355C30.8791 124.994 31.4317 124.947 31.9557 124.786C32.4797 124.624 32.9627 124.352 33.3718 123.987C33.7809 123.622 34.1064 123.173 34.3262 122.67C34.546 122.168 34.6549 121.624 34.6454 121.076V109.141H31.9932V119.22Z" fill="white"/>
<path d="M42.2708 113.749C40.7936 113.749 39.3769 114.336 38.3323 115.38C37.2878 116.425 36.701 117.841 36.701 119.319C36.701 120.796 37.2878 122.212 38.3323 123.257C39.3769 124.302 40.7936 124.888 42.2708 124.888C42.7736 124.949 43.2832 124.865 43.7408 124.648C44.1984 124.431 44.5852 124.089 44.8567 123.662C44.8567 125.551 43.9616 126.712 42.2376 126.778V128.933C45.785 128.933 47.5753 127.474 47.5753 124.557V119.385C47.6307 118.659 47.5341 117.929 47.2916 117.242C47.049 116.555 46.6659 115.927 46.1668 115.396C45.6676 114.866 45.0633 114.445 44.3925 114.162C43.7216 113.878 42.999 113.737 42.2708 113.749V113.749ZM42.2708 122.435C41.8982 122.402 41.536 122.295 41.2059 122.119C40.8758 121.943 40.5844 121.703 40.3493 121.412C40.1141 121.121 39.9399 120.786 39.8372 120.426C39.7344 120.066 39.7051 119.69 39.7511 119.319C39.7511 117.661 40.7126 116.268 42.1382 116.268C43.5638 116.268 44.7573 117.528 44.7573 119.584C44.7859 120.287 44.5442 120.974 44.0817 121.504C43.6192 122.035 42.9712 122.368 42.2708 122.435V122.435Z" fill="white"/>
<path d="M63.8205 106.918H61.1351V109.67H63.8205V106.918Z" fill="white"/>
<path d="M68.4621 106.918H65.7767V109.67H68.4621V106.918Z" fill="white"/>
<path d="M91.5701 119.55C91.6065 120.143 91.5392 120.738 91.3712 121.308C91.1933 121.594 90.9351 121.823 90.6286 121.964C90.3222 122.106 89.9809 122.154 89.6472 122.103H85.7351V121.407C85.7702 119.892 85.2246 118.421 84.21 117.296C83.7048 116.752 83.0872 116.325 82.4001 116.045C81.713 115.764 80.973 115.637 80.2316 115.671C79.4943 115.645 78.7596 115.774 78.0746 116.048C77.3895 116.322 76.7692 116.735 76.2532 117.263C75.7407 117.8 75.3416 118.435 75.0796 119.13C74.8176 119.825 74.6981 120.566 74.7281 121.308C74.7116 121.572 74.7116 121.838 74.7281 122.103H70.4182C69.6565 122.168 68.8896 122.077 68.1637 121.838C68.9351 121.23 69.549 120.445 69.954 119.55C70.3181 118.725 70.5099 117.834 70.5176 116.931C70.5008 116.21 70.3397 115.499 70.0438 114.841C69.7479 114.183 69.3233 113.591 68.7949 113.1C68.2665 112.608 67.6451 112.228 66.9673 111.981C66.2895 111.733 65.569 111.624 64.8484 111.66C63.6745 111.647 62.5259 112.001 61.563 112.673C60.6002 113.345 59.8711 114.3 59.4775 115.406C59.2707 115.945 59.1694 116.52 59.1791 117.097C59.1803 117.979 59.3726 118.85 59.7427 119.65C60.1466 120.536 60.7612 121.31 61.533 121.904C60.8071 122.144 60.0402 122.234 59.2786 122.17H55.698C54.9675 122.237 54.2327 122.099 53.5762 121.772C53.2804 121.462 53.0583 121.089 52.9263 120.682C52.7942 120.274 52.7557 119.842 52.8136 119.418V109.107H50.095V120.446C49.9875 121.632 50.3308 122.816 51.0565 123.761C51.4334 124.192 51.9048 124.53 52.4339 124.748C52.963 124.967 53.5355 125.06 54.1066 125.021H59.4112C61.3056 125.14 63.191 124.677 64.8152 123.695C66.4655 124.672 68.3706 125.134 70.2856 125.021H75.8553C76.3492 125.714 77.0076 126.274 77.7715 126.651C78.5353 127.027 79.3807 127.207 80.2316 127.176C81.1016 127.201 81.964 127.008 82.7401 126.615C83.5162 126.221 84.1812 125.638 84.6742 124.921H90.2108C92.9626 124.921 94.3219 123.462 94.3219 120.512V109.107H91.5701V119.55ZM66.3071 119.915C65.8417 120.273 65.342 120.584 64.8152 120.843C64.2801 120.58 63.7696 120.27 63.2902 119.915C62.7871 119.569 62.3782 119.102 62.1004 118.558C61.8225 118.014 61.6845 117.409 61.6988 116.799C61.676 116.02 61.9484 115.262 62.4613 114.677C62.7695 114.366 63.1362 114.119 63.5402 113.951C63.9442 113.783 64.3775 113.696 64.8152 113.696C65.2529 113.696 65.6862 113.783 66.0902 113.951C66.4942 114.119 66.8609 114.366 67.1691 114.677C67.4306 114.962 67.6327 115.297 67.7636 115.661C67.8946 116.025 67.9517 116.412 67.9316 116.799C67.9549 117.414 67.8173 118.026 67.5324 118.572C67.2476 119.119 66.8253 119.581 66.3071 119.915V119.915ZM82.2208 123.562C81.991 123.86 81.694 124.099 81.3541 124.261C81.0142 124.422 80.6409 124.501 80.2648 124.49C79.8598 124.471 79.4633 124.368 79.1006 124.187C78.7378 124.006 78.4168 123.751 78.1579 123.439C77.8989 123.127 77.7079 122.765 77.5969 122.375C77.4858 121.985 77.4573 121.576 77.513 121.175C77.4934 120.409 77.7136 119.655 78.1429 119.02C78.3668 118.703 78.6656 118.446 79.0127 118.273C79.3597 118.099 79.7443 118.014 80.1321 118.025C80.5364 118.021 80.9359 118.112 81.2987 118.291C81.6614 118.469 81.9772 118.73 82.2208 119.053C82.6711 119.705 82.9033 120.482 82.8839 121.274C82.9455 122.087 82.7228 122.896 82.254 123.562H82.2208Z" fill="white"/>
<path d="M99.5601 109.075H96.8416V124.889H99.5601V109.075Z" fill="white"/>
<path d="M107.119 113.749C105.642 113.749 104.225 114.336 103.181 115.38C102.136 116.425 101.549 117.841 101.549 119.319C101.549 120.796 102.136 122.212 103.181 123.257C104.225 124.302 105.642 124.888 107.119 124.888C107.626 124.947 108.14 124.864 108.603 124.647C109.065 124.43 109.459 124.089 109.738 123.662C109.738 125.551 108.81 126.712 107.086 126.778V128.933C110.667 128.933 112.424 127.474 112.424 124.557V119.385C112.479 118.659 112.382 117.929 112.14 117.242C111.897 116.555 111.514 115.927 111.015 115.396C110.516 114.866 109.912 114.445 109.241 114.162C108.57 113.878 107.847 113.737 107.119 113.749V113.749ZM107.119 122.435C106.747 122.402 106.384 122.295 106.054 122.119C105.724 121.943 105.433 121.703 105.198 121.412C104.962 121.121 104.788 120.786 104.685 120.426C104.583 120.066 104.553 119.69 104.599 119.319C104.599 117.661 105.561 116.268 107.02 116.268C108.478 116.268 109.606 117.528 109.606 119.584C109.643 120.289 109.404 120.981 108.94 121.513C108.476 122.045 107.823 122.376 107.119 122.435V122.435Z" fill="white"/>
<path d="M125.121 120.246C125.108 119.675 125.258 119.111 125.552 118.621C125.734 118.303 126.01 118.048 126.342 117.891C126.673 117.734 127.045 117.683 127.407 117.744C127.769 117.806 128.103 117.977 128.364 118.235C128.626 118.492 128.801 118.824 128.868 119.185L130.824 117.859C130.507 117.104 129.971 116.46 129.286 116.011C128.601 115.562 127.797 115.328 126.978 115.339C126.357 115.31 125.736 115.42 125.163 115.661C124.589 115.901 124.077 116.267 123.663 116.732C122.83 117.632 122.378 118.821 122.403 120.047C122.408 120.754 122.555 121.453 122.834 122.103H120.613V124.921H130.99V122.136H125.751C125.527 121.878 125.355 121.578 125.247 121.254C125.139 120.93 125.096 120.587 125.121 120.246V120.246Z" fill="white"/>
<path d="M147.069 108.809H144.384V111.528H147.069V108.809Z" fill="white"/>
<path d="M157.612 127.541H154.926V130.292H157.612V127.541Z" fill="white"/>
<path d="M175.714 119.55C175.75 120.143 175.683 120.738 175.515 121.308C175.337 121.594 175.079 121.823 174.772 121.964C174.466 122.106 174.124 122.154 173.791 122.103H167.591C168.091 121.241 168.3 120.242 168.188 119.252V109.107H165.469V119.418C165.512 120.051 165.41 120.686 165.171 121.274C165.011 121.556 164.771 121.785 164.483 121.932C164.194 122.08 163.868 122.139 163.546 122.103H156.916C157.415 121.241 157.624 120.242 157.512 119.252V113.782H154.794V119.418C154.837 120.051 154.735 120.686 154.495 121.274C154.333 121.562 154.088 121.794 153.793 121.942C153.498 122.09 153.165 122.146 152.838 122.103H146.207C146.707 121.241 146.916 120.242 146.804 119.252V113.782H144.085V119.418C144.128 120.051 144.026 120.686 143.787 121.274C143.627 121.556 143.387 121.785 143.099 121.932C142.81 122.08 142.484 122.139 142.162 122.103H139.245C138.514 122.17 137.779 122.033 137.123 121.705C136.827 121.395 136.605 121.023 136.473 120.615C136.341 120.208 136.302 119.776 136.36 119.351V109.107H133.642V120.446C133.534 121.632 133.877 122.816 134.603 123.761C134.98 124.192 135.452 124.53 135.981 124.748C136.51 124.967 137.082 125.06 137.653 125.021H174.387C177.139 125.021 178.498 123.562 178.498 120.611V109.107H175.714V119.55Z" fill="white"/>
<path d="M198.656 120.28C198.804 121.016 198.787 121.776 198.605 122.504C198.424 123.233 198.083 123.912 197.607 124.493C197.131 125.074 196.533 125.542 195.854 125.864C195.175 126.185 194.434 126.352 193.683 126.352C192.932 126.352 192.191 126.185 191.512 125.864C190.833 125.542 190.234 125.074 189.759 124.493C189.283 123.912 188.942 123.233 188.761 122.504C188.579 121.776 188.562 121.016 188.71 120.28V118.291H185.925V120.678C185.856 121.737 186.004 122.799 186.362 123.798C186.72 124.798 187.279 125.713 188.004 126.488C188.73 127.263 189.607 127.88 190.581 128.302C191.555 128.725 192.605 128.942 193.666 128.942C194.728 128.942 195.778 128.725 196.752 128.302C197.726 127.88 198.603 127.263 199.328 126.488C200.054 125.713 200.613 124.798 200.971 123.798C201.328 122.799 201.477 121.737 201.408 120.678V109.107H198.656V120.28Z" fill="white"/>
<path d="M217.454 127.541H214.769V130.292H217.454V127.541Z" fill="white"/>
<path d="M231.08 127.507H228.395V130.258H231.08V127.507Z" fill="white"/>
<path d="M244.01 119.55C244.046 120.143 243.979 120.738 243.811 121.308C243.633 121.594 243.375 121.823 243.069 121.964C242.762 122.106 242.421 122.154 242.087 122.103H237.91C237.986 121.008 237.829 119.909 237.45 118.878C237.072 117.848 236.48 116.909 235.713 116.123C234.946 115.337 234.021 114.722 233 114.319C231.979 113.915 230.884 113.732 229.787 113.782C228.646 113.78 227.516 114.017 226.472 114.478C225.509 114.903 224.624 115.485 223.853 116.202C224.331 116.897 224.774 117.616 225.179 118.357C225.792 117.684 226.552 117.162 227.4 116.832C228.471 116.355 229.668 116.24 230.81 116.503C231.952 116.766 232.978 117.394 233.732 118.291C234.597 119.394 235.044 120.768 234.992 122.17H216.89C217.39 121.308 217.599 120.308 217.487 119.318V113.782H214.769V119.418C214.812 120.051 214.709 120.686 214.47 121.274C214.31 121.556 214.071 121.785 213.782 121.932C213.493 122.08 213.168 122.139 212.846 122.103H209.53C208.8 122.17 208.065 122.033 207.409 121.705C207.107 121.398 206.879 121.027 206.741 120.62C206.603 120.212 206.559 119.778 206.613 119.351V109.107H203.894V120.446C203.796 121.637 204.151 122.821 204.889 123.761C205.264 124.194 205.735 124.533 206.265 124.752C206.794 124.971 207.368 125.063 207.939 125.021H242.651C245.369 125.021 246.762 123.562 246.762 120.611V109.107H244.01V119.55Z" fill="white"/>
<path d="M252 109.075H249.281V124.889H252V109.075Z" fill="white"/>
<path d="M10.8744 150.516L9.94606 148.56H3.05012L2.12183 150.516H0L5.23826 139.708H7.75793L12.9962 150.516H10.8744ZM3.87896 146.802H9.11722L6.63071 141.233L3.87896 146.802Z" fill="white"/>
<path d="M16.7426 148.792H24.3679V150.516H14.7866V139.774H16.7426V148.792Z" fill="white"/>
<path d="M31.9269 144.813H37.1983V150.648H36.0711L35.4744 149.355C34.982 149.874 34.3839 150.282 33.7205 150.551C33.0571 150.82 32.3437 150.943 31.6285 150.913C30.1201 150.955 28.6476 150.449 27.4844 149.487C26.9305 149.023 26.4902 148.438 26.1972 147.777C25.9041 147.116 25.766 146.397 25.7935 145.675V144.813C25.766 144.09 25.9041 143.371 26.1972 142.71C26.4902 142.05 26.9305 141.465 27.4844 141C28.6399 140.025 30.1178 139.517 31.6285 139.574C32.7047 139.56 33.7666 139.822 34.7118 140.337C35.5672 140.779 36.2542 141.49 36.6679 142.359L34.9771 143.221C34.6823 142.636 34.2208 142.152 33.6509 141.829C33.0312 141.491 32.3344 141.319 31.6285 141.332C30.6069 141.293 29.6097 141.649 28.8437 142.326C28.4743 142.658 28.1842 143.069 27.9949 143.528C27.8055 143.987 27.7217 144.483 27.7496 144.978V145.409C27.7217 145.905 27.8055 146.401 27.9949 146.86C28.1842 147.319 28.4743 147.73 28.8437 148.062C29.6097 148.739 30.6069 149.095 31.6285 149.056C32.3722 149.091 33.1103 148.913 33.7563 148.543C34.4023 148.173 34.9293 147.627 35.2754 146.968V146.371H31.9601L31.9269 144.813Z" fill="white"/>
<path d="M39.7842 150.516V139.774H41.7403V150.516H39.7842Z" fill="white"/>
<path d="M52.7142 145.179C53.3968 145.291 54.0312 145.603 54.5376 146.074C54.7416 146.278 54.9025 146.521 55.0107 146.789C55.1189 147.057 55.1723 147.343 55.1675 147.632V147.632C55.1675 149.456 53.7751 150.384 51.0233 150.384H44.3926V139.775H50.6918C51.7442 139.704 52.794 139.946 53.7088 140.471C54.0411 140.69 54.3108 140.991 54.491 141.346C54.6712 141.7 54.7559 142.096 54.7365 142.493V142.493C54.7519 143.075 54.5511 143.642 54.1729 144.085C53.8112 144.591 53.3016 144.973 52.7142 145.179ZM50.9902 141.499H46.415V144.317H50.9239C51.4306 144.351 51.9337 144.211 52.3495 143.919C52.5151 143.812 52.6508 143.664 52.7436 143.49C52.8364 143.316 52.8833 143.122 52.8799 142.924V142.924C53.0457 141.963 52.25 141.499 50.9902 141.499ZM53.2115 147.367C53.2269 147.173 53.1807 146.978 53.0796 146.812C52.9784 146.645 52.8274 146.515 52.6479 146.439C52.1225 146.226 51.5557 146.135 50.9902 146.173H46.415V148.859H50.957C51.529 148.893 52.1001 148.779 52.6147 148.527C52.8164 148.422 52.9813 148.257 53.0878 148.056C53.1944 147.855 53.2375 147.626 53.2115 147.4V147.367Z" fill="white"/>
<path d="M66.9039 150.516L65.9756 148.56H59.0797L58.1514 150.516H56.0296L61.2678 139.708H63.7875L69.0257 150.516H66.9039ZM59.9085 146.802H65.1468L62.5277 141.233L59.9085 146.802Z" fill="white"/>
<path d="M72.7388 148.792H80.3973V150.516H70.8159V139.774H72.7388V148.792Z" fill="white"/>
<path d="M92.3658 150.781C90.837 150.824 89.3433 150.318 88.1553 149.355C87.6015 148.891 87.1612 148.305 86.8681 147.645C86.5751 146.984 86.437 146.265 86.4645 145.542V144.813C86.437 144.091 86.5751 143.372 86.8681 142.711C87.1612 142.05 87.6015 141.465 88.1553 141C89.3155 140.034 90.7901 139.526 92.2995 139.575C93.3867 139.556 94.4603 139.818 95.4159 140.337C96.2628 140.791 96.9467 141.498 97.372 142.36L95.6812 143.222C95.3687 142.627 94.8832 142.142 94.2887 141.829C93.669 141.491 92.9721 141.32 92.2663 141.332C91.2555 141.298 90.2705 141.655 89.5146 142.326C89.1512 142.662 88.8674 143.074 88.6838 143.533C88.5003 143.991 88.4216 144.486 88.4537 144.979V145.41C88.4114 145.914 88.485 146.421 88.6689 146.892C88.8528 147.363 89.1421 147.786 89.5146 148.128C90.2585 148.798 91.2326 149.155 92.2332 149.123C92.9754 149.141 93.7086 148.958 94.355 148.593C94.9572 148.234 95.4502 147.718 95.7806 147.101L97.4383 147.996C97.0052 148.897 96.3124 149.647 95.4491 150.151C94.4868 150.605 93.4292 150.821 92.3658 150.781Z" fill="white"/>
<path d="M104.997 150.781C103.494 150.819 102.03 150.299 100.886 149.323C100.348 148.854 99.9209 148.272 99.6343 147.618C99.3478 146.965 99.2092 146.256 99.2285 145.543V144.814C99.2068 144.1 99.3444 143.391 99.6311 142.737C99.9178 142.083 100.347 141.502 100.886 141.034C102.03 140.058 103.494 139.538 104.997 139.576C106.491 139.534 107.946 140.055 109.075 141.034C109.624 141.495 110.062 142.075 110.355 142.73C110.648 143.384 110.788 144.097 110.766 144.814V145.576C110.786 146.293 110.644 147.005 110.352 147.659C110.059 148.313 109.623 148.893 109.075 149.356C107.942 150.324 106.487 150.832 104.997 150.781ZM102.312 148.129C103.058 148.773 104.011 149.127 104.997 149.127C105.983 149.127 106.936 148.773 107.683 148.129C108.043 147.804 108.328 147.405 108.517 146.958C108.706 146.511 108.795 146.028 108.777 145.543V144.814C108.795 144.329 108.706 143.846 108.517 143.399C108.328 142.952 108.043 142.553 107.683 142.228C106.936 141.584 105.983 141.23 104.997 141.23C104.011 141.23 103.058 141.584 102.312 142.228C101.951 142.553 101.666 142.952 101.477 143.399C101.288 143.846 101.2 144.329 101.218 144.814V145.377C101.174 145.89 101.251 146.405 101.44 146.882C101.63 147.36 101.929 147.787 102.312 148.129Z" fill="white"/>
<path d="M113.053 150.516V139.774H114.91L122.104 147.631V139.774H123.994V150.516H122.204L114.976 142.559V150.516H113.053Z" fill="white"/>
<path d="M136.626 139.775V141.499H132.249V150.483H130.327V141.499H125.983V139.742L136.626 139.775Z" fill="white"/>
<path d="M146.472 150.516L143.588 147.2H140.505V150.516H138.549V139.774H143.919C145.189 139.717 146.447 140.041 147.533 140.702C147.971 141.001 148.324 141.409 148.557 141.885C148.789 142.362 148.894 142.891 148.859 143.421V143.421C148.882 144.215 148.596 144.987 148.064 145.576C147.471 146.198 146.711 146.636 145.875 146.836L149.191 150.449L146.472 150.516ZM140.505 141.498V145.344H143.82C145.875 145.344 146.903 144.747 146.903 143.52C146.931 143.216 146.87 142.911 146.729 142.641C146.588 142.37 146.372 142.146 146.108 141.995C145.395 141.657 144.607 141.508 143.82 141.564L140.505 141.498Z" fill="white"/>
<path d="M160.894 150.516L159.966 148.56H153.07L152.142 150.516H150.02L155.258 139.708H157.778L163.016 150.516H160.894ZM153.899 146.802H159.137L156.518 141.233L153.899 146.802Z" fill="white"/>
<path d="M169.647 150.781C168.118 150.824 166.624 150.318 165.436 149.355C164.882 148.891 164.442 148.305 164.149 147.645C163.856 146.984 163.718 146.265 163.745 145.542V144.813C163.718 144.091 163.856 143.372 164.149 142.711C164.442 142.05 164.882 141.465 165.436 141C166.596 140.034 168.071 139.526 169.58 139.575C170.668 139.556 171.741 139.818 172.697 140.337C173.544 140.791 174.228 141.498 174.653 142.36L172.962 143.222C172.65 142.627 172.164 142.142 171.57 141.829C170.95 141.491 170.253 141.32 169.547 141.332C168.536 141.298 167.551 141.655 166.795 142.326C166.469 142.653 166.21 143.041 166.034 143.468C165.858 143.894 165.767 144.351 165.768 144.813V145.244C165.736 145.737 165.814 146.231 165.998 146.69C166.181 147.149 166.465 147.561 166.829 147.896C167.572 148.566 168.547 148.923 169.547 148.891C170.289 148.909 171.023 148.726 171.669 148.36C172.271 148.002 172.764 147.486 173.095 146.869L174.752 147.764C174.319 148.664 173.626 149.415 172.763 149.919C171.811 150.459 170.741 150.755 169.647 150.781V150.781Z" fill="white"/>
<path d="M186.621 139.775V141.499H182.344V150.483H180.388V141.499H175.946V139.742L186.621 139.775Z" fill="white"/>
<path d="M188.677 150.516V139.774H190.6V150.516H188.677Z" fill="white"/>
<path d="M193.418 150.516V139.774H195.274L202.436 147.631V139.774H204.358V150.516H202.568L195.341 142.559V150.516H193.418Z" fill="white"/>
<path d="M212.879 144.813H218.15V150.648H217.023L216.393 149.355C215.908 149.876 215.316 150.285 214.658 150.554C214 150.823 213.291 150.945 212.58 150.913C211.062 150.951 209.581 150.446 208.403 149.488C207.849 149.023 207.409 148.438 207.116 147.777C206.823 147.116 206.685 146.397 206.712 145.675V144.813C206.685 144.091 206.823 143.372 207.116 142.711C207.409 142.05 207.849 141.465 208.403 141C209.563 140.034 211.038 139.526 212.547 139.575C213.634 139.556 214.708 139.818 215.664 140.337C216.511 140.791 217.194 141.498 217.62 142.36L215.929 143.222C215.625 142.632 215.152 142.147 214.57 141.829C213.964 141.486 213.276 141.315 212.58 141.332C211.548 141.288 210.539 141.644 209.762 142.326C209.451 142.657 209.21 143.049 209.056 143.477C208.902 143.904 208.838 144.359 208.867 144.813V145.244C208.848 145.736 208.933 146.226 209.116 146.683C209.299 147.14 209.575 147.553 209.928 147.896C210.694 148.573 211.691 148.93 212.713 148.891C213.457 148.93 214.197 148.754 214.844 148.383C215.491 148.013 216.017 147.464 216.36 146.802V146.205H213.045L212.879 144.813Z" fill="white"/>
<path d="M230.251 150.781C228.733 150.82 227.252 150.314 226.074 149.356C225.52 148.891 225.08 148.306 224.787 147.645C224.494 146.985 224.356 146.266 224.383 145.543V144.814C224.356 144.091 224.494 143.372 224.787 142.712C225.08 142.051 225.52 141.466 226.074 141.001C227.231 140.029 228.708 139.521 230.218 139.576C231.304 139.571 232.374 139.833 233.335 140.338C234.173 140.792 234.846 141.5 235.257 142.36L233.567 143.222C233.263 142.633 232.789 142.148 232.207 141.83C231.587 141.495 230.89 141.324 230.185 141.333C229.174 141.296 228.187 141.652 227.433 142.327C227.064 142.659 226.774 143.07 226.584 143.529C226.395 143.988 226.311 144.484 226.339 144.98V145.411C226.324 145.902 226.411 146.391 226.594 146.847C226.776 147.303 227.051 147.717 227.4 148.063C228.144 148.733 229.118 149.089 230.119 149.057C230.861 149.079 231.595 148.895 232.24 148.527C232.849 148.177 233.344 147.659 233.666 147.035L235.357 147.93C234.92 148.839 234.214 149.592 233.335 150.085C232.378 150.562 231.32 150.801 230.251 150.781V150.781Z" fill="white"/>
<path d="M242.883 150.781C241.355 150.848 239.859 150.326 238.705 149.323C238.162 148.858 237.731 148.277 237.444 147.623C237.157 146.968 237.021 146.257 237.048 145.543V144.814C237.019 144.099 237.153 143.388 237.44 142.733C237.728 142.078 238.16 141.497 238.705 141.034C239.834 140.055 241.289 139.534 242.783 139.576C244.287 139.538 245.751 140.058 246.894 141.034C247.452 141.492 247.9 142.069 248.204 142.724C248.508 143.378 248.661 144.092 248.651 144.814V145.576C248.671 146.29 248.532 146.998 248.246 147.652C247.959 148.305 247.532 148.887 246.994 149.356C245.845 150.32 244.382 150.828 242.883 150.781V150.781ZM240.197 148.129C240.944 148.773 241.897 149.127 242.883 149.127C243.869 149.127 244.822 148.773 245.568 148.129C245.929 147.804 246.213 147.405 246.403 146.958C246.592 146.511 246.68 146.028 246.662 145.543V144.814C246.68 144.329 246.592 143.846 246.403 143.399C246.213 142.952 245.929 142.553 245.568 142.228C244.822 141.584 243.869 141.23 242.883 141.23C241.897 141.23 240.944 141.584 240.197 142.228C239.837 142.553 239.552 142.952 239.363 143.399C239.174 143.846 239.085 144.329 239.103 144.814V145.377C239.06 145.89 239.136 146.405 239.326 146.882C239.516 147.36 239.814 147.787 240.197 148.129Z" fill="white"/>
<path d="M250.143 150.515V148.626H251.967V150.515H250.143Z" fill="white"/>
<path d="M391.205 142.262L338.623 125.983V0L391.205 49.3325V142.262ZM340.579 124.359L389.249 139.576V50.0618L340.579 4.50888V124.359Z" fill="#D2A276"/>
<path d="M340.579 155.822H263V99.4607L340.579 124.458V155.822ZM264.956 153.866H338.623V125.984L264.956 102.08V153.866Z" fill="#D2A276"/>
</svg>